<?xml version="1.0" encoding="utf-8"?><svg fill="none" viewBox="0 0 500 500" xmlns="http://www.w3.org/2000/svg"><defs><clipPath id="cp-1000-1000"><rect height="1000" width="1000" y="0" x="0" /></clipPath><g id="comp_0"><g id="Layer 2"><g transform="translate(300.393,550.184)"><g transform="rotate(0)"><animateTransform repeatCount="indefinite" type="rotate" attributeName="transform" dur="5s" begin="0s" calcMode="spline" values="0; 360" keyTimes="0; 1" keySplines="0 0 1 1" fill="freeze" /><g transform="scale(1,1)"><animateTransform repeatCount="indefinite" type="scale" attributeName="transform" dur="5s" begin="0s" calcMode="spline" values="1 1; 0.5 0.5; 1 1" keyTimes="0; 0.447; 1" keySplines="0 0 1 1; 0 0 1 1" fill="freeze" /><g transform="translate(0,0)"><g id="Group 1"><path fill="#371a45" fill-opacity="1" d="M14.031,0L4.937,1.404C3.115,1.685,1.685,3.115,1.404,4.937L0,14.031L-1.404,4.937C-1.685,3.115,-3.115,1.685,-4.937,1.404L-14.031,0L-4.937,-1.404C-3.115,-1.685,-1.685,-3.115,-1.404,-4.937L0,-14.031L1.404,-4.937C1.685,-3.115,3.115,-1.685,4.937,-1.404L14.031,0Z" /></g></g></g></g></g></g><g id="Layer 3"><g transform="translate(265.164,610.138)"><g transform="rotate(0)"><animateTransform repeatCount="indefinite" type="rotate" attributeName="transform" dur="5s" begin="0s" calcMode="spline" values="0; 360" keyTimes="0; 1" keySplines="0 0 1 1" fill="freeze" /><g transform="scale(1,1)"><animateTransform repeatCount="indefinite" type="scale" attributeName="transform" dur="5s" begin="0s" calcMode="spline" values="1 1; 0.5 0.5; 1 1" keyTimes="0; 0.447; 1" keySplines="0 0 1 1; 0 0 1 1" fill="freeze" /><g transform="translate(0,0)"><g id="Group 1"><path fill="#371a45" fill-opacity="1" d="M13.165,0L4.632,1.317C2.922,1.581,1.581,2.922,1.317,4.632L0,13.164L-1.317,4.632C-1.581,2.922,-2.922,1.581,-4.632,1.317L-13.165,0L-4.632,-1.318C-2.922,-1.582,-1.581,-2.922,-1.317,-4.632L0,-13.164L1.317,-4.632C1.581,-2.922,2.922,-1.582,4.632,-1.318L13.165,0Z" /></g></g></g></g></g></g><g id="Layer 4"><g transform="translate(239.676,506.094)"><g transform="rotate(0)"><animateTransform repeatCount="indefinite" type="rotate" attributeName="transform" dur="5s" begin="0s" calcMode="spline" values="0; 360" keyTimes="0; 1" keySplines="0 0 1 1" fill="freeze" /><g transform="scale(1,1)"><animateTransform repeatCount="indefinite" type="scale" attributeName="transform" dur="5s" begin="0s" calcMode="spline" values="1 1; 0.5 0.5; 1 1" keyTimes="0; 0.447; 1" keySplines="0 0 1 1; 0 0 1 1" fill="freeze" /><g transform="translate(0,0)"><g id="Group 1"><path fill="#371a45" fill-opacity="1" d="M9.818,0L3.455,0.982C2.18,1.179,1.179,2.179,0.982,3.454L0,9.817L-0.982,3.454C-1.179,2.179,-2.18,1.179,-3.455,0.982L-9.818,0L-3.455,-0.983C-2.18,-1.18,-1.179,-2.18,-0.982,-3.455L0,-9.817L0.982,-3.455C1.179,-2.18,2.18,-1.18,3.455,-0.983L9.818,0Z" /></g></g></g></g></g></g><g id="Layer 5"><g transform="translate(801.333,526.574)"><g transform="rotate(0)"><animateTransform repeatCount="indefinite" type="rotate" attributeName="transform" dur="5s" begin="0s" calcMode="spline" values="0; 360" keyTimes="0; 1" keySplines="0 0 1 1" fill="freeze" /><g transform="scale(1,1)"><animateTransform repeatCount="indefinite" type="scale" attributeName="transform" dur="5s" begin="0s" calcMode="spline" values="1 1; 0.5 0.5; 1 1" keyTimes="0; 0.447; 1" keySplines="0 0 1 1; 0 0 1 1" fill="freeze" /><g transform="translate(0,0)"><g id="Group 1"><path fill="#371a45" fill-opacity="1" d="M-14.415,0L-5.072,1.442C-3.2,1.731,-1.732,3.2,-1.443,5.072L0,14.415L1.443,5.072C1.732,3.2,3.2,1.731,5.072,1.442L14.415,0L5.072,-1.443C3.2,-1.732,1.732,-3.2,1.443,-5.072L0,-14.415L-1.443,-5.072C-1.732,-3.2,-3.2,-1.732,-5.072,-1.443L-14.415,0Z" /></g></g></g></g></g></g><g id="Layer 6"><g transform="translate(744.241,586.687)"><g transform="rotate(0)"><animateTransform repeatCount="indefinite" type="rotate" attributeName="transform" dur="5s" begin="0s" calcMode="spline" values="0; 360" keyTimes="0; 1" keySplines="0 0 1 1" fill="freeze" /><g transform="scale(1,1)"><animateTransform repeatCount="indefinite" type="scale" attributeName="transform" dur="5s" begin="0s" calcMode="spline" values="1 1; 0.5 0.5; 1 1" keyTimes="0; 0.447; 1" keySplines="0 0 1 1; 0 0 1 1" fill="freeze" /><g transform="translate(0,0)"><g id="Group 1"><path fill="#371a45" fill-opacity="1" d="M-13.525,0L-4.759,1.353C-3.003,1.624,-1.624,3.003,-1.353,4.759L0,13.525L1.353,4.759C1.624,3.003,3.003,1.624,4.759,1.353L13.525,0L4.759,-1.354C3.003,-1.625,1.624,-3.003,1.353,-4.759L0,-13.525L-1.353,-4.759C-1.624,-3.003,-3.003,-1.625,-4.759,-1.354L-13.525,0Z" /></g></g></g></g></g></g><g id="Layer 7"><g transform="translate(760.846,475.681)"><g transform="rotate(0)"><animateTransform repeatCount="indefinite" type="rotate" attributeName="transform" dur="5s" begin="0s" calcMode="spline" values="0; 360" keyTimes="0; 1" keySplines="0 0 1 1" fill="freeze" /><g transform="scale(1,1)"><animateTransform repeatCount="indefinite" type="scale" attributeName="transform" dur="5s" begin="0s" calcMode="spline" values="1 1; 0.5 0.5; 1 1" keyTimes="0; 0.447; 1" keySplines="0 0 1 1; 0 0 1 1" fill="freeze" /><g transform="translate(0,0)"><g id="Group 1"><path fill="#371a45" fill-opacity="1" d="M-10.086,0L-3.549,1.009C-2.239,1.211,-1.211,2.239,-1.009,3.549L0,10.086L1.009,3.549C1.211,2.239,2.239,1.211,3.549,1.009L10.086,0L3.549,-1.009C2.239,-1.211,1.211,-2.239,1.009,-3.549L0,-10.086L-1.009,-3.549C-1.211,-2.239,-2.239,-1.211,-3.549,-1.009L-10.086,0Z" /></g></g></g></g></g></g><g id="Layer 8"><g transform="translate(338.13,297.421)"><g transform="rotate(0)"><animateTransform repeatCount="indefinite" type="rotate" attributeName="transform" dur="5s" begin="0s" calcMode="spline" values="0; 360" keyTimes="0; 1" keySplines="0 0 1 1" fill="freeze" /><g transform="scale(1,1)"><animateTransform repeatCount="indefinite" type="scale" attributeName="transform" dur="5s" begin="0s" calcMode="spline" values="1 1; 0.5 0.5; 1 1" keyTimes="0; 0.447; 1" keySplines="0 0 1 1; 0 0 1 1" fill="freeze" /><g transform="translate(0,0)"><g id="Group 1"><path fill="#371a45" fill-opacity="1" d="M10.992,0L3.868,1.1C2.441,1.32,1.32,2.441,1.1,3.868L0,10.991L-1.1,3.868C-1.32,2.441,-2.441,1.32,-3.868,1.1L-10.992,0L-3.868,-1.1C-2.441,-1.32,-1.32,-2.441,-1.1,-3.868L0,-10.991L1.1,-3.868C1.32,-2.441,2.441,-1.32,3.868,-1.1L10.992,0Z" /></g></g></g></g></g></g><g id="Layer 9"><g transform="translate(286.962,354.749)"><g transform="rotate(0)"><animateTransform repeatCount="indefinite" type="rotate" attributeName="transform" dur="5s" begin="0s" calcMode="spline" values="0; 360" keyTimes="0; 1" keySplines="0 0 1 1" fill="freeze" /><g transform="scale(1,1)"><animateTransform repeatCount="indefinite" type="scale" attributeName="transform" dur="5s" begin="0s" calcMode="spline" values="1 1; 0.5 0.5; 1 1" keyTimes="0; 0.447; 1" keySplines="0 0 1 1; 0 0 1 1" fill="freeze" /><g transform="translate(0,0)"><g id="Group 1"><path fill="#371a45" fill-opacity="1" d="M11.408,0L4.014,1.142C2.533,1.371,1.371,2.533,1.142,4.014L0,11.408L-1.142,4.014C-1.371,2.533,-2.533,1.371,-4.014,1.142L-11.408,0L-4.014,-1.142C-2.533,-1.371,-1.371,-2.533,-1.142,-4.014L0,-11.408L1.142,-4.014C1.371,-2.533,2.533,-1.371,4.014,-1.142L11.408,0Z" /></g></g></g></g></g></g><g id="Layer 10"><g transform="translate(643.326,253.47)"><g transform="rotate(0)"><animateTransform repeatCount="indefinite" type="rotate" attributeName="transform" dur="5s" begin="0s" calcMode="spline" values="0; 360" keyTimes="0; 1" keySplines="0 0 1 1" fill="freeze" /><g transform="scale(1,1)"><animateTransform repeatCount="indefinite" type="scale" attributeName="transform" dur="5s" begin="0s" calcMode="spline" values="1 1; 0.5 0.5; 1 1" keyTimes="0; 0.447; 1" keySplines="0 0 1 1; 0 0 1 1" fill="freeze" /><g transform="translate(0,0)"><g id="Group 1"><path fill="#371a45" fill-opacity="1" d="M-10.992,0L-3.868,1.1C-2.441,1.32,-1.32,2.441,-1.1,3.868L0,10.991L1.1,3.868C1.32,2.441,2.441,1.32,3.868,1.1L10.992,0L3.868,-1.1C2.441,-1.32,1.32,-2.441,1.1,-3.868L0,-10.991L-1.1,-3.868C-1.32,-2.441,-2.441,-1.32,-3.868,-1.1L-10.992,0Z" /></g></g></g></g></g></g></g></defs><g transform="matrix(0.54,0,0,0.54,-19.537,0.714)" id="Pre-comp 1"><use clip-path="url(#cp-1000-1000)" height="1000" width="1000" y="0" x="0" xlink:href="#comp_0" href="#comp_0" /></g><g transform="matrix(0.54,0,0,0.54,250.464,270.713)" id="Layer 5"><g id="Group 8"><g id="Group 2"><path fill="#17273a" fill-opacity="1" d="M-196,258.72L-155.87,287.26C-169.94,278.75,-183.34,269.2,-196,258.72Z" /></g><g id="Group 1"><path fill="#17273a" fill-opacity="1" d="M221.95,258.72C209.3,269.2,195.889,278.74,181.82,287.26L221.95,258.72Z" /></g></g><g id="Group 7"><g id="Group 1"><path fill="#17273a" fill-opacity="1" d="M-274.416,294.815C-261.816,292.82,-249.217,292.343,-236.617,292.098C-230.317,291.963,-224.018,291.936,-217.718,291.971C-211.418,291.961,-205.118,292.052,-198.818,292.118C-186.218,292.235,-173.619,292.265,-161.019,292.246L-123.22,292.246L27.975,292.246L179.171,292.246L254.769,292.246L273.668,292.239L283.118,292.147L292.568,291.987C305.168,291.942,317.768,292.057,330.367,294.815C331.076,294.97,331.525,295.672,331.37,296.381C331.257,296.899,330.852,297.277,330.367,297.384C317.768,300.142,305.168,300.257,292.568,300.212L283.118,300.052L273.668,299.96L254.769,299.953L179.171,299.953L27.975,299.953L-123.22,299.953L-161.019,299.953C-173.619,299.934,-186.218,299.964,-198.818,300.081C-205.118,300.146,-211.418,300.239,-217.718,300.229C-224.018,300.264,-230.317,300.237,-236.617,300.102C-249.217,299.857,-261.816,299.379,-274.416,297.384C-275.125,297.272,-275.609,296.606,-275.497,295.897C-275.407,295.326,-274.957,294.901,-274.416,294.815Z" /></g></g><g id="Group 6"><g id="Group 2"><path fill="#371a45" fill-opacity="1" d="M271.529,294.586L-215.578,294.586C-223.455,294.586,-229.84,288.201,-229.84,280.324L-229.84,279.86C-229.84,271.983,-223.455,265.598,-215.578,265.598L271.529,265.598C279.406,265.598,285.791,271.983,285.791,279.86L285.791,280.324C285.791,288.201,279.406,294.586,271.529,294.586Z" /></g><g id="Group 1"><path fill="#17273a" fill-opacity="1" d="M-215.578,266.141C-223.143,266.141,-229.298,272.295,-229.298,279.859L-229.298,280.324C-229.298,287.889,-223.143,294.044,-215.578,294.044L271.529,294.044C279.094,294.044,285.249,287.889,285.249,280.324L285.249,279.859C285.249,272.295,279.094,266.141,271.529,266.141L-215.578,266.141ZM271.528,295.129L-215.578,295.129C-223.741,295.129,-230.383,288.488,-230.383,280.324L-230.383,279.859C-230.383,271.696,-223.741,265.055,-215.578,265.055L271.528,265.055C279.691,265.055,286.333,271.696,286.333,279.859L286.333,280.324C286.333,288.488,279.691,295.129,271.528,295.129Z" /></g></g><g id="Group 5"><g id="Group 1"><path fill="#17273a" fill-opacity="1" d="M-215.578,269.359C-221.369,269.359,-226.08,274.07,-226.08,279.859L-226.08,280.324C-226.08,286.115,-221.369,290.826,-215.578,290.826L271.529,290.826C277.32,290.826,282.03,286.115,282.03,280.324L282.03,279.859C282.03,274.07,277.32,269.359,271.529,269.359L-215.578,269.359ZM271.529,298.347L-215.578,298.347C-225.516,298.347,-233.601,290.262,-233.601,280.324L-233.601,279.859C-233.601,269.921,-225.516,261.838,-215.578,261.838L271.529,261.838C281.467,261.838,289.552,269.921,289.552,279.859L289.552,280.324C289.552,290.262,281.467,298.347,271.529,298.347Z" /></g></g><g id="Group 4"><g id="Group 1"><path fill="#ffffff" fill-opacity="1" d="M271.757,269.892L-135.35,269.892L-169.434,269.892L-215.806,269.892C-221.252,269.892,-225.682,274.468,-225.682,280.092C-225.682,284.214,-223.297,287.764,-219.882,289.371C-220.917,287.758,-221.524,285.828,-221.524,283.753C-221.524,278.129,-217.094,273.553,-211.648,273.553L-169.882,273.553C-167.72,276.03,-160.717,277.848,-152.392,277.848C-144.067,277.848,-137.064,276.03,-134.902,273.553L275.915,273.553C277.369,273.553,278.747,273.888,279.991,274.474C278.221,271.717,275.193,269.892,271.757,269.892Z" /></g></g><g id="Group 3"><g id="Group 1"><path fill="#371a45" fill-opacity="1" d="M-208.026,294.586L271.757,294.586C279.508,294.586,285.791,288.097,285.791,280.092L285.791,280.092C285.791,272.087,279.508,265.598,271.757,265.598L78.575,265.598C70.94,269.902,13.707,296.573,-222.563,289.658L-208.026,294.586Z" /></g></g><g id="Group 2"><g id="Group 1"><path fill="#cccccc" fill-opacity="1" d="M349.073,308.096C349.073,321.196,197.725,331.823,11.036,331.823C-175.653,331.823,-327.001,321.196,-327.001,308.096C-327.001,304.418,-315.033,300.92,-293.664,297.815L315.737,297.815C337.106,300.92,349.073,304.418,349.073,308.096Z" /></g></g><g id="Group 1"><path fill="#cccccc" fill-opacity="1" d="M181.82,287.26L-155.87,287.26C-104.82,286.31,-47.541,285.78,12.98,285.78C73.49,285.78,130.769,286.31,181.82,287.26Z" /></g></g><g transform="matrix(0.54,0,0,0.54,250.464,270.714)" id="Layer 7"><g id="Group 4"><g id="Group 2"><path fill="#ffffff" fill-opacity="1" d="M192.974,118.327L192.974,230.106C192.974,235.312,191.633,240.275,189.209,244.737C182.588,257.015,167.917,265.598,150.982,265.598L-99.284,265.598C-113.522,265.598,-126.159,259.539,-133.761,250.309C-138.493,244.566,-141.276,237.604,-141.276,230.106L-141.276,118.327C-141.276,111.39,-138.882,104.904,-134.756,99.417C-127.313,89.468,-114.171,82.835,-99.284,82.835L150.982,82.835C153.002,82.835,154.977,82.957,156.925,83.201C177.236,85.652,192.974,100.514,192.974,118.327Z" /></g><g id="Group 1"><path fill="#371a45" fill-opacity="1" d="M-99.284,86.596C-112.549,86.596,-124.683,92.231,-131.744,101.67C-135.521,106.693,-137.515,112.451,-137.515,118.327L-137.515,230.106C-137.515,236.472,-135.213,242.632,-130.858,247.916C-123.678,256.634,-111.874,261.838,-99.284,261.838L150.982,261.838C166.006,261.838,179.711,254.425,185.899,242.952C188.1,238.898,189.214,234.58,189.214,230.106L189.214,118.327C189.214,102.682,175.138,89.186,156.474,86.935C154.671,86.709,152.829,86.596,150.982,86.596L-99.284,86.596ZM150.982,269.359L-99.284,269.359C-114.097,269.359,-128.071,263.131,-136.663,252.699C-142.141,246.051,-145.037,238.238,-145.037,230.106L-145.037,118.327C-145.037,110.807,-142.522,103.487,-137.762,97.157C-129.294,85.837,-114.907,79.074,-99.284,79.074L150.982,79.074C153.139,79.074,155.296,79.206,157.392,79.469C179.814,82.174,196.735,98.88,196.735,118.327L196.735,230.106C196.735,235.847,195.315,241.374,192.514,246.532C185.037,260.394,168.733,269.359,150.982,269.359Z" /></g></g><g id="Group 3"><g id="Group 1"><path fill="#ffffff" fill-opacity="1" d="M29.034,51.762C114.54,65.9,194.29,117.844,224.487,197.636C248.891,262.123,204.567,265.598,204.567,265.598L27.279,265.598L28.904,265.598L-148.384,265.598C-148.384,265.598,-192.708,262.123,-168.304,197.636C-138.107,117.844,-58.357,65.9,27.149,51.762" /></g></g><g id="Group 2"><g id="Group 1"><path fill="#d9e0e6" fill-opacity="1" d="M204.562,265.599L-148.388,265.599C-148.388,265.599,-179.396,263.163,-175.25,224.633C-175.192,225.098,-175.127,225.555,-175.056,226.005C-172.073,244.869,-146.392,248.558,-137.817,231.493L-133.939,223.775L189.859,223.775L194.015,231.902C202.678,248.843,228.09,245.067,231.193,226.294C231.283,225.752,231.363,225.198,231.434,224.633C235.58,263.163,204.562,265.599,204.562,265.599Z" /></g></g><g id="Group 1"><g id="Group 1"><path fill="#371a45" fill-opacity="1" d="M28.904,261.838L204.391,261.838C205.735,261.695,216.952,260.213,223.432,249.907C230.299,238.984,229.448,221.369,220.97,198.967C193.166,125.497,119.384,70.513,28.42,55.473C28.308,55.454,28.199,55.431,28.091,55.403C27.984,55.43,27.874,55.454,27.762,55.473C-63.202,70.513,-136.983,125.497,-164.787,198.967C-173.265,221.369,-174.115,238.984,-167.248,249.906C-160.784,260.188,-149.609,261.688,-148.205,261.838L28.904,261.838ZM204.714,269.359L-148.678,269.348C-149.329,269.298,-164.716,267.938,-173.544,254.023C-181.907,240.842,-181.328,221.424,-171.822,196.306C-143.072,120.336,-67.066,63.528,26.535,48.051C27.07,47.963,27.598,47.992,28.092,48.12C28.586,47.992,29.112,47.963,29.647,48.051C123.248,63.528,199.255,120.336,228.005,196.306C237.511,221.424,238.09,240.843,229.727,254.025C220.899,267.939,205.512,269.298,204.861,269.348L204.714,269.359Z" /></g></g></g><g transform="matrix(0.54,0,0,0.54,250.464,270.714)" id="Layer 7"><g id="Layer 6"><g transform="translate(27.872,110.592)"><g transform="rotate(0)"><animateTransform repeatCount="indefinite" type="rotate" attributeName="transform" dur="5s" begin="0s" calcMode="spline" values="0; 10; 10; -10; -10; 10; 10; 0" keyTimes="0; 0.17; 0.31; 0.477; 0.617; 0.773; 0.847; 1" keySplines="0.333 0 0.667 1; 0.333 0 0.667 1; 0.333 0 0.667 1; 0.333 0 0.667 1; 0.333 0 0.667 1; 0.167 0 0.667 1; 0.167 0 0.667 1" fill="freeze" /><g transform="scale(1,1) translate(-27.872,-110.592)"><g id="Group 16"><g id="Group 2"><path fill="#ffffff" fill-opacity="1" d="M179.47,-6.171L179.47,-6.171C177.735,-6.089,176.263,-7.429,176.181,-9.164L171.92,-99.64C171.838,-101.375,173.178,-102.847,174.913,-102.929L174.913,-102.929C193.112,-103.786,208.561,-89.727,209.418,-71.528L210.871,-40.676C211.728,-22.477,197.669,-7.028,179.47,-6.171Z" /></g><g id="Group 1"><path fill="#17273a" fill-opacity="1" d="M176.482,-102.29C175.972,-102.29,175.459,-102.278,174.944,-102.254C173.584,-102.19,172.531,-101.032,172.595,-99.672L176.856,-9.196C176.92,-7.836,178.08,-6.791,179.439,-6.846L179.439,-6.846C197.237,-7.684,211.034,-22.846,210.196,-40.644L208.743,-71.496C207.929,-88.779,193.608,-102.29,176.482,-102.29ZM179.321,-5.492C177.295,-5.492,175.602,-7.09,175.506,-9.133L171.245,-99.608C171.146,-101.712,172.778,-103.505,174.881,-103.604C193.434,-104.479,209.22,-90.103,210.092,-71.56L211.546,-40.707C211.969,-31.725,208.869,-23.116,202.816,-16.465C196.764,-9.815,188.484,-5.919,179.502,-5.496L179.502,-5.496C179.441,-5.493,179.381,-5.492,179.321,-5.492Z" /></g></g><g id="Group 15"><g id="Group 1"><path fill="#d9e0e6" fill-opacity="1" d="M210.189,-55.143L210.874,-40.673C211.728,-22.48,197.671,-7.029,179.468,-6.165C177.734,-6.081,176.263,-7.43,176.179,-9.164L175.038,-33.216C175.577,-32.142,176.71,-31.437,177.984,-31.487L180.129,-31.594C194.511,-32.268,206.314,-42.064,210.189,-55.143Z" /></g></g><g id="Group 14"><g id="Group 1"><path fill="#371a45" fill-opacity="1" d="M175.706,-99.195L179.908,-9.963C195.709,-11.036,207.863,-24.606,207.114,-40.499L205.661,-71.351C204.913,-87.244,191.514,-99.623,175.706,-99.195ZM179.319,-2.407C175.659,-2.407,172.598,-5.294,172.424,-8.988L168.163,-99.463C167.984,-103.266,170.933,-106.506,174.735,-106.686C194.964,-107.64,212.221,-91.947,213.175,-71.705L214.628,-40.853C215.581,-20.611,199.889,-3.368,179.647,-2.414L179.646,-2.414C179.537,-2.409,179.428,-2.407,179.319,-2.407Z" /></g></g><g id="Group 13"><g id="Group 2"><path fill="#ffffff" fill-opacity="1" d="M-123.726,-88.864L-123.726,-88.864C-121.991,-88.946,-120.519,-87.606,-120.437,-85.871L-116.176,4.605C-116.094,6.34,-117.434,7.812,-119.169,7.894L-119.169,7.894C-137.368,8.751,-152.817,-5.308,-153.674,-23.507L-155.127,-54.36C-155.984,-72.559,-141.925,-88.007,-123.726,-88.864Z" /></g><g id="Group 1"><path fill="#17273a" fill-opacity="1" d="M-123.695,-88.19C-141.493,-87.352,-155.29,-72.189,-154.452,-54.391L-152.999,-23.539C-152.16,-5.742,-137.007,8.045,-119.201,7.219C-117.841,7.155,-116.787,5.996,-116.851,4.636L-121.112,-85.84C-121.177,-87.2,-122.362,-88.267,-123.695,-88.19L-123.695,-88.19ZM-120.739,8.607C-138.582,8.607,-153.501,-5.469,-154.349,-23.476L-155.802,-54.328C-156.225,-63.31,-153.125,-71.919,-147.072,-78.57C-141.02,-85.22,-132.741,-89.116,-123.758,-89.539L-123.758,-89.539C-121.645,-89.641,-119.862,-88.005,-119.762,-85.903L-115.501,4.573C-115.402,6.677,-117.034,8.47,-119.137,8.569C-119.673,8.594,-120.208,8.607,-120.739,8.607Z" /></g></g><g id="Group 12"><g id="Group 1"><path fill="#d9e0e6" fill-opacity="1" d="M-117.351,-20.495L-116.172,4.604C-116.088,6.338,-117.438,7.81,-119.172,7.894C-128.724,8.34,-137.527,4.683,-143.854,-1.535C-149.568,-7.15,-153.262,-14.861,-153.67,-23.502L-154.283,-36.502C-148.58,-25.34,-136.695,-17.935,-123.352,-18.561L-120.051,-18.718C-118.846,-18.777,-117.852,-19.491,-117.351,-20.495Z" /></g></g><g id="Group 11"><g id="Group 1"><path fill="#371a45" fill-opacity="1" d="M-124.164,-85.072C-139.965,-83.999,-152.119,-70.429,-151.37,-54.536L-149.917,-23.684C-149.169,-7.791,-135.787,4.574,-119.962,4.16L-124.164,-85.072ZM-120.74,11.692C-140.219,11.692,-156.505,-3.674,-157.431,-23.331L-158.884,-54.183C-159.837,-74.425,-144.145,-91.667,-123.903,-92.621L-123.902,-92.621C-120.095,-92.786,-116.86,-89.851,-116.68,-86.049L-112.419,4.428C-112.24,8.231,-115.189,11.471,-118.991,11.651C-119.576,11.678,-120.161,11.692,-120.74,11.692Z" /></g></g><g id="Group 10"><g id="Group 2"><path fill="#ffffff" fill-opacity="1" d="M182.195,-43.826C180.155,41.394,109.418,108.826,24.198,106.786C-61.022,104.746,-128.454,34.009,-126.414,-51.211C-124.374,-136.431,-53.636,-203.863,31.584,-201.823C116.804,-199.783,184.235,-129.046,182.195,-43.826Z" /></g><g id="Group 1"><path fill="#17273a" fill-opacity="1" d="M27.794,-201.193C-11.854,-201.193,-49.341,-186.205,-78.142,-158.751C-107.853,-130.429,-124.757,-92.231,-125.739,-51.195C-127.766,33.516,-60.497,104.084,24.214,106.111C108.904,108.141,179.491,40.87,181.52,-43.842L182.196,-43.825L181.52,-43.842C182.502,-84.878,167.445,-123.84,139.123,-153.551C110.801,-183.263,72.603,-200.166,31.567,-201.148C30.31,-201.178,29.048,-201.193,27.794,-201.193ZM27.944,107.507C26.689,107.507,25.443,107.492,24.181,107.462C-61.275,105.417,-129.134,34.228,-127.089,-51.228C-126.099,-92.624,-109.046,-131.157,-79.074,-159.729C-49.101,-188.3,-9.798,-203.476,31.6,-202.499C72.997,-201.509,111.529,-184.456,140.101,-154.484C168.672,-124.511,183.862,-85.206,182.871,-43.809L182.871,-43.809C180.856,40.385,111.711,107.507,27.944,107.507Z" /></g></g><g id="Group 9"><g id="Group 1"><path fill="#d9e0e6" fill-opacity="1" d="M181.228,-65.221C182.044,-58.22,182.37,-51.078,182.198,-43.824C180.147,41.393,109.414,108.823,24.196,106.792C-61.021,104.741,-128.451,34.007,-126.42,-51.211C-126.363,-53.662,-126.247,-56.114,-126.072,-58.526C-117.467,16.837,-54.4,76.211,23.573,78.08C106.34,80.054,175.432,16.511,181.228,-65.221Z" /></g></g><g id="Group 8"><g id="Group 1"><path fill="#371a45" fill-opacity="1" d="M182.196,-43.825L182.209,-43.825L182.196,-43.825ZM27.796,-198.108C-11.056,-198.108,-47.79,-183.421,-76.013,-156.518C-105.127,-128.764,-121.692,-91.333,-122.654,-51.121C-124.64,31.889,-58.723,101.04,24.288,103.027C107.277,105.022,176.448,39.095,178.436,-43.916C180.423,-126.927,114.504,-196.077,31.493,-198.063C30.261,-198.093,29.024,-198.108,27.796,-198.108ZM27.945,110.592C26.664,110.592,25.395,110.578,24.107,110.546C-63.049,108.461,-132.259,35.855,-130.174,-51.302C-128.088,-138.458,-55.533,-207.66,31.674,-205.583C73.895,-204.572,113.194,-187.181,142.334,-156.612C171.474,-126.043,186.966,-85.956,185.956,-43.735L185.956,-43.735C183.9,42.135,113.378,110.592,27.945,110.592Z" /></g></g><g id="Group 7"><g id="Group 1"><path fill="#371a45" fill-opacity="1" d="M181.607,-39.874C181.341,-9.671,171.289,18.282,154.317,41.334C141.593,58.616,89.649,88.6,25.834,88.611C-33.336,88.621,-86.89,56.601,-99.307,39.097C-115.87,15.749,-125.426,-12.377,-125.16,-42.58C-124.455,-122.505,-55.494,-155.033,29.221,-154.286C113.936,-153.539,182.312,-119.799,181.607,-39.874Z" /></g></g><g id="Group 6"><g id="Group 1"><path fill="#371a45" fill-opacity="1" d="M181.607,-39.874L181.62,-39.874L181.607,-39.874ZM26.379,-150.538C-16.216,-150.538,-52.065,-141.909,-77.433,-125.526C-106.285,-106.893,-121.078,-78.975,-121.399,-42.547C-121.65,-14.114,-112.95,13.365,-96.239,36.921C-84.373,53.649,-31.995,84.851,25.81,84.851C25.821,84.851,25.823,84.851,25.834,84.851C89.904,84.84,139.916,54.552,151.289,39.104C168.412,15.847,177.596,-11.475,177.847,-39.908C178.717,-138.555,74.175,-150.128,29.187,-150.525C28.248,-150.533,27.312,-150.538,26.379,-150.538ZM25.809,92.372C-35.405,92.372,-89.362,59.615,-102.374,41.273C-120.005,16.419,-129.185,-12.588,-128.92,-42.614C-128.575,-81.731,-112.625,-111.753,-81.513,-131.845C-54.351,-149.386,-16.047,-158.469,29.254,-158.046C74.557,-157.646,112.694,-147.911,139.542,-129.894C170.295,-109.257,185.713,-78.959,185.368,-39.841L185.368,-39.841C185.103,-9.816,175.413,19.025,157.346,43.564C144.82,60.577,93.385,92.361,25.835,92.372C25.827,92.372,25.817,92.372,25.809,92.372Z" /></g></g><g id="Group 5"><g id="Group 1"><path fill="#ffffff" fill-opacity="1" d="M112.409,-54.872C109.588,-40.052,116.006,-26.382,126.745,-24.338C137.484,-22.294,148.475,-32.651,151.296,-47.471C154.117,-62.291,147.699,-75.961,136.96,-78.005C126.221,-80.049,115.23,-69.692,112.409,-54.872Z" /></g></g><g id="Group 4"><g id="Group 1"><path fill="#ffffff" fill-opacity="1" d="M96.94,-0.732C94.718,5.826,97.478,12.688,103.106,14.595C108.734,16.502,115.097,12.731,117.319,6.173C119.541,-0.385,116.781,-7.247,111.153,-9.154C105.525,-11.061,99.162,-7.29,96.94,-0.732Z" /></g></g><g id="Group 3"><g id="Group 1"><path fill="#371a45" fill-opacity="1" d="M152.433,-114.7C171.026,-96.642,181.884,-71.98,181.605,-39.879C181.339,-9.67,171.281,18.281,154.321,41.334C141.593,58.616,89.645,88.599,25.831,88.616C3.299,88.626,-18.412,83.983,-37.357,77.258C41.085,75.565,104.363,38.761,120.142,17.326C141.685,-11.931,154.44,-47.414,154.773,-85.739C154.87,-95.982,154.051,-105.628,152.433,-114.7Z" /></g></g><g id="Group 2"><g id="Group 1"><path fill="#371a45" fill-opacity="1" d="M169.019,-106.322C168.183,-106.322,167.342,-106.601,166.644,-107.176L166.248,-107.502L165.932,-107.94C140.222,-144.67,90.119,-166.05,28.468,-166.595C-33.476,-167.172,-83.957,-145.97,-109.893,-108.512L-110.082,-108.262C-111.402,-106.657,-113.782,-106.418,-115.385,-107.74C-116.942,-109.023,-117.212,-111.285,-116.016,-112.883C-88.622,-152.368,-35.894,-174.696,28.534,-174.116C92.603,-173.549,144.903,-151.03,172.041,-112.33C173.045,-110.974,173.047,-109.056,171.927,-107.697C171.182,-106.792,170.104,-106.322,169.019,-106.322Z" /></g></g><g id="Group 1"><g id="Group 1"><path fill="#ffffff" fill-opacity="1" d="M-91.132,5.27C-91.132,5.27,-115.191,-73.795,-72.421,-104.84C-29.651,-135.885,31.483,-135.219,30.019,-131.311C30.019,-131.311,-37.806,-115.522,-64.76,-62.25C-85.545,-21.171,-91.132,5.27,-91.132,5.27Z" /></g></g></g></g></g></g></g><g id="Layer 8"><g transform="translate(161.958,392.551)"><g transform="rotate(0)"><animateTransform repeatCount="indefinite" type="rotate" attributeName="transform" dur="4.533s" begin="0.383s" calcMode="spline" values="0; -30; 0; -30; 0; -30; 0; -30; 0; -30; 0" keyTimes="0; 0.098; 0.2; 0.298; 0.4; 0.498; 0.6; 0.698; 0.8; 0.898; 1" keySplines="0.333 0 0.667 1; 0.333 0 0.667 1; 0.333 0 0.667 1; 0.333 0 0.667 1; 0.333 0 0.667 1; 0.333 0 0.667 1; 0.333 0 0.667 1; 0.333 0 0.667 1; 0.333 0 0.667 1; 0.333 0 0.667 1" fill="freeze" /><g transform="scale(0.54,0.54) translate(163.9,-225.624)"><g id="Group 3"><g id="Group 1"><path fill="#ffffff" fill-opacity="1" d="M-162.829,226.985C-162.829,226.985,-145.946,176.071,-100.475,175.925C-58.52,175.791,-42.5,196.719,-52.329,225.456C-57.221,239.758,-109.482,253.277,-133.939,223.775" /></g></g><g id="Group 2"><g id="Group 1"><path fill="#d9e0e6" fill-opacity="1" d="M-52.325,225.461C-57.224,239.762,-109.482,253.273,-133.937,223.778L-133.937,223.778C-133.937,218.613,-128.212,215.586,-123.885,218.407C-97.439,235.646,-56.626,223.698,-52.325,211.141C-51.385,208.405,-50.689,205.735,-50.219,203.149C-48.827,209.749,-49.532,217.291,-52.325,225.461Z" /></g></g><g id="Group 1"><g id="Group 1"><path fill="#371a45" fill-opacity="1" d="M-164.019,226.59C-163.929,220.609,-161.886,215.24,-159.236,210.227C-156.635,205.172,-153.235,200.539,-149.443,196.265C-145.611,192.026,-141.536,187.946,-136.888,184.495C-132.256,181.04,-127.147,178.145,-121.696,176.06C-116.253,173.957,-110.474,172.714,-104.674,172.323L-100.326,172.166C-98.917,172.189,-97.511,172.188,-96.101,172.233C-93.28,172.345,-90.454,172.512,-87.627,172.851C-81.979,173.501,-76.308,174.635,-70.812,176.669C-65.331,178.669,-59.985,181.646,-55.576,185.929C-51.141,190.169,-47.957,195.885,-46.658,201.887C-45.327,207.895,-45.604,214.036,-46.858,219.749C-47.134,221.195,-47.547,222.591,-47.924,223.999L-48.58,226.073L-48.745,226.592C-48.802,226.768,-48.923,227.031,-49.012,227.246L-49.62,228.589C-51.511,231.842,-54.037,233.893,-56.555,235.635C-61.658,239.047,-67.142,241.054,-72.703,242.571C-83.842,245.424,-95.541,245.964,-106.911,243.58C-108.33,243.277,-109.743,242.95,-111.138,242.524C-112.547,242.161,-113.918,241.65,-115.299,241.175C-116.68,240.702,-118.025,240.105,-119.402,239.594C-120.729,238.96,-122.116,238.433,-123.401,237.693C-124.694,236.971,-125.99,236.242,-127.146,235.299C-128.358,234.441,-129.453,233.425,-130.483,232.354C-132.534,230.209,-134.144,227.597,-134.904,224.575C-135.09,223.833,-134.641,223.081,-133.899,222.895C-133.63,222.827,-133.359,222.843,-133.115,222.927L-132.974,222.975C-131.504,223.474,-130.358,224.176,-129.16,224.788C-127.945,225.379,-126.923,226.123,-125.802,226.74C-125.258,227.067,-124.737,227.414,-124.223,227.769C-123.69,228.099,-123.135,228.398,-122.617,228.743C-122.076,229.055,-121.585,229.439,-121.037,229.741C-120.493,230.048,-119.963,230.377,-119.435,230.713C-115.243,233.486,-110.338,235.146,-105.346,236.222C-95.319,238.343,-84.612,237.868,-74.621,235.298C-69.665,233.962,-64.765,232.1,-60.776,229.409C-58.807,228.092,-57.081,226.483,-56.221,224.983C-56.154,224.802,-56.08,224.628,-55.997,224.456C-55.955,224.356,-55.913,224.316,-55.865,224.167L-55.721,223.709L-55.14,221.878C-54.816,220.649,-54.447,219.424,-54.216,218.185C-53.126,213.25,-52.961,208.214,-53.995,203.543C-55.022,198.87,-57.375,194.631,-60.836,191.307C-64.276,187.965,-68.657,185.456,-73.418,183.725C-78.174,181.96,-83.29,180.918,-88.484,180.323C-91.08,180.01,-93.711,179.856,-96.346,179.751L-100.312,179.688L-104.151,179.827C-109.249,180.172,-114.27,181.252,-119.018,183.088C-128.514,186.746,-136.983,193.167,-143.51,201.285C-145.127,203.326,-146.675,205.424,-148.133,207.593C-149.622,209.738,-151.059,211.926,-152.474,214.139C-155.271,218.587,-158.039,223.077,-161.639,227.379L-161.7,227.452C-162.165,228.008,-162.993,228.082,-163.549,227.617C-163.863,227.354,-164.022,226.969,-164.019,226.59Z" /></g></g></g></g></g></g><g id="Layer 9"><g transform="translate(367.816,393.091)"><g transform="rotate(0)"><animateTransform repeatCount="indefinite" type="rotate" attributeName="transform" dur="4.55s" begin="0.033s" calcMode="spline" values="0; 23; 0; 23; 0; 23; 0; 23; 0; 23; 0" keyTimes="0; 0.098; 0.2; 0.298; 0.4; 0.498; 0.6; 0.698; 0.8; 0.898; 1" keySplines="0.333 0 0.667 1; 0.333 0 0.667 1; 0.333 0 0.667 1; 0.333 0 0.667 1; 0.333 0 0.667 1; 0.333 0 0.667 1; 0.333 0 0.667 1; 0.333 0 0.667 1; 0.333 0 0.667 1; 0.333 0 0.667 1" fill="freeze" /><g transform="scale(0.54,0.54) translate(-217.32,-226.624)"><g id="Group 3"><g id="Group 1"><path fill="#ffffff" fill-opacity="1" d="M218.75,226.985C218.75,226.985,201.866,176.071,156.395,175.925C114.44,175.791,98.42,196.719,108.249,225.456C113.141,239.758,165.402,253.277,189.859,223.775L218.75,226.985Z" /></g></g><g id="Group 2"><g id="Group 1"><path fill="#d9e0e6" fill-opacity="1" d="M189.857,223.778C165.402,253.273,113.145,239.762,108.246,225.461C105.453,217.291,104.748,209.749,106.14,203.149C106.61,205.735,107.306,208.405,108.246,211.141C112.547,223.698,153.36,235.646,179.806,218.407C184.133,215.586,189.857,218.613,189.857,223.778L189.857,223.778Z" /></g></g><g id="Group 1"><g id="Group 1"><path fill="#371a45" fill-opacity="1" d="M217.56,227.379C213.96,223.077,211.191,218.587,208.394,214.139C206.978,211.926,205.542,209.738,204.053,207.593C202.595,205.424,201.047,203.326,199.43,201.285C192.904,193.167,184.434,186.746,174.938,183.088C170.19,181.252,165.17,180.172,160.072,179.827L156.232,179.688L152.266,179.751C149.631,179.856,147,180.01,144.404,180.323C139.21,180.918,134.094,181.96,129.338,183.725C124.577,185.456,120.196,187.965,116.756,191.307C113.295,194.631,110.942,198.87,109.915,203.543C108.881,208.214,109.046,213.25,110.136,218.185C110.368,219.424,110.737,220.649,111.061,221.878L111.641,223.709L111.785,224.167C111.833,224.316,111.875,224.356,111.917,224.456C112,224.628,112.075,224.802,112.142,224.983C113.002,226.483,114.727,228.092,116.696,229.409C120.685,232.1,125.585,233.962,130.541,235.298C140.532,237.868,151.24,238.343,161.267,236.222C166.259,235.146,171.163,233.486,175.356,230.713C175.884,230.377,176.413,230.048,176.957,229.741C177.505,229.439,177.995,229.055,178.537,228.743C179.055,228.398,179.61,228.099,180.143,227.769C180.657,227.414,181.179,227.067,181.723,226.74C182.844,226.123,183.866,225.379,185.081,224.788C186.279,224.176,187.424,223.474,188.894,222.975L189.036,222.926C189.76,222.68,190.546,223.068,190.792,223.792C190.881,224.055,190.887,224.324,190.824,224.575C190.064,227.597,188.454,230.209,186.403,232.354C185.372,233.425,184.278,234.441,183.066,235.299C181.909,236.242,180.614,236.971,179.321,237.693C178.036,238.433,176.649,238.96,175.322,239.594C173.945,240.105,172.601,240.702,171.219,241.175C169.838,241.65,168.467,242.161,167.058,242.524C165.663,242.95,164.25,243.277,162.831,243.58C151.461,245.964,139.763,245.424,128.624,242.571C123.063,241.054,117.579,239.047,112.476,235.635C109.958,233.893,107.432,231.842,105.541,228.589L104.932,227.246C104.843,227.031,104.722,226.768,104.665,226.592L104.5,226.073L103.844,223.999C103.467,222.591,103.054,221.195,102.778,219.749C101.524,214.036,101.247,207.895,102.578,201.887C103.878,195.885,107.061,190.169,111.496,185.929C115.905,181.646,121.252,178.669,126.733,176.669C132.229,174.635,137.899,173.501,143.547,172.851C146.374,172.512,149.2,172.345,152.021,172.233C153.431,172.188,154.838,172.189,156.247,172.166L160.594,172.323C166.395,172.714,172.173,173.957,177.617,176.06C183.068,178.145,188.176,181.04,192.808,184.495C197.456,187.946,201.532,192.026,205.364,196.265C209.156,200.539,212.556,205.172,215.156,210.227C217.807,215.24,219.85,220.609,219.939,226.59C219.95,227.315,219.372,227.911,218.647,227.922C218.238,227.928,217.869,227.747,217.624,227.457L217.56,227.379Z" /></g></g></g></g></g></g><g transform="matrix(0.54,0,0,0.54,250.464,270.713)" id="Layer 5"><g transform="matrix(1,0,0,1,0,0)" id="Layer 4"><g id="Group 12"><g id="Group 1"><path fill="#371a45" fill-opacity="1" d="M167.79,260.438L-108.012,260.438C-120.529,260.438,-130.676,250.292,-130.676,237.775L-130.676,236.618L190.453,236.618L190.453,237.775C190.453,250.292,180.307,260.438,167.79,260.438Z" /></g></g><g id="Group 11"><g id="Group 1"><path fill="#d9e0e6" fill-opacity="1" d="M190.456,236.617L190.456,237.774C190.456,250.288,180.302,260.442,167.788,260.442L-108.008,260.442C-120.532,260.442,-130.677,250.288,-130.677,237.774L-130.677,236.617L-129.671,236.617C-126.822,245.869,-118.2,252.601,-108.008,252.601L167.788,252.601C177.971,252.601,186.601,245.869,189.45,236.617L190.456,236.617Z" /></g></g><g id="Group 10"><g id="Group 1"><path fill="#371a45" fill-opacity="1" d="M-126.735,240.379C-125.463,249.574,-117.551,256.678,-108.012,256.678L167.79,256.678C177.329,256.678,185.241,249.574,186.513,240.379L-126.735,240.379ZM167.79,264.199L-108.012,264.199C-122.582,264.199,-134.436,252.345,-134.436,237.775L-134.436,232.858L194.213,232.858L194.213,237.775C194.213,252.345,182.36,264.199,167.79,264.199Z" /></g></g><g id="Group 9"><g id="Group 1"><path fill="#ffffff" fill-opacity="1" d="M-116.202,244.134L185.082,244.134C185.468,243.101,185.771,242.025,185.976,240.913L-126.199,240.913C-124.903,247.954,-119.779,253.613,-113.156,255.483C-115.572,253.567,-117.514,251.045,-118.756,248.135C-119.56,246.252,-118.195,244.134,-116.202,244.134Z" /></g></g><g id="Group 8"><g id="Group 1"><path fill="#e8ebed" fill-opacity="1" d="M141.893,260.191L-79.942,260.191C-91.781,260.191,-101.729,251.817,-103.037,240.748L-121.815,81.88C-123.346,68.931,-112.571,57.606,-98.721,57.606L160.672,57.606C174.522,57.606,185.297,68.931,183.766,81.88L164.987,240.748C163.679,251.817,153.732,260.191,141.893,260.191Z" /></g></g><g id="Group 7"><g id="Group 1"><path fill="#ffffff" fill-opacity="1" d="M45.476,176.165C45.52,176.147,45.564,176.129,45.608,176.111C46.974,175.541,48.246,177.027,47.472,178.289C45.25,181.911,41.881,184.881,37.605,186.589C27.942,190.449,16.723,186.316,11.895,177.098C6.325,166.464,11,153.52,21.813,148.791C25.902,147.002,30.259,146.656,34.314,147.529C35.651,147.817,35.845,149.643,34.591,150.189L34.548,150.208C27.085,153.472,23.878,162.423,27.773,169.749C31.125,176.053,38.86,178.849,45.476,176.165Z" /></g></g><g id="Group 6"><g id="Group 7"><path d="" /></g><g id="Group 6"><g id="Group 1"><path fill="#ffffff" fill-opacity="1" d="M132.894,113.316C130.174,116.091,125.749,116.18,122.988,113.501C120.213,110.829,120.144,106.404,122.83,103.602C125.468,100.855,129.901,100.793,132.682,103.465C135.436,106.123,135.538,110.61,132.894,113.316ZM139.238,107.61C138.382,106.822,137.553,106,136.717,105.198C133.929,102.499,131.147,99.807,128.338,97.121C128.16,96.95,127.825,96.785,127.619,96.847C125.344,97.443,123.194,98.353,121.152,99.525C117.966,101.347,115.5,103.972,113.294,106.856C110.937,109.911,108.868,113.166,107.135,116.612C105.381,120.085,103.743,123.613,102.085,127.128C101.982,127.327,101.941,127.704,102.058,127.834C102.736,128.553,103.47,129.224,104.237,129.964C105.888,128.251,107.464,126.614,109.053,124.97C111.184,122.757,113.315,120.551,115.452,118.345C116.219,117.564,117.205,117.407,118.048,117.907C119.254,118.619,119.432,120.14,118.404,121.195C114.855,124.888,111.286,128.567,107.737,132.253C107.566,132.431,107.395,132.602,107.237,132.773C107.306,132.889,107.327,132.952,107.368,132.986C107.991,133.596,108.642,134.185,109.238,134.808C109.512,135.089,109.724,135.075,110.053,134.924C116.767,131.752,123.269,128.217,129.14,123.627C131.305,121.935,133.326,120.092,135.025,117.92C137.224,115.091,138.58,111.871,139.464,108.425C139.553,108.076,139.492,107.85,139.238,107.61Z" /></g></g><g id="Group 5"><g id="Group 1"><path fill="#000000" fill-opacity="1" d="M140.218,103.963C137.436,101.275,134.722,98.654,132.003,96.024C131.999,95.953,132.004,95.876,132.002,95.798C134.695,95.719,137.395,95.643,140.125,95.559C140.509,98.447,140.478,101.155,140.218,103.963Z" /></g></g><g id="Group 4"><g id="Group 1"><path fill="#000000" fill-opacity="1" d="M105.87,110.207C103.762,114.218,101.652,118.236,99.505,122.322C96.334,121.789,93.054,121.244,89.685,120.684C92.476,116.65,95.522,113.039,100.059,111.029C102.016,110.156,104.385,109.849,105.87,110.207Z" /></g></g><g id="Group 3"><g id="Group 1"><path fill="#000000" fill-opacity="1" d="M124.115,140.824C122.204,143.346,119.844,145.369,117.244,147.277C116.551,143.84,115.869,140.476,115.198,137.179C119.213,134.879,123.137,132.633,127.088,130.366C127.423,131.5,127.405,132.751,127.217,134.003C126.82,136.565,125.656,138.776,124.115,140.824Z" /></g></g><g id="Group 2"><path d="" /></g><g id="Group 1"><g id="Group 1"><path fill="#371a45" fill-opacity="1" d="M130.44,111.076C129.063,112.487,126.734,112.522,125.286,111.15C123.798,109.74,123.783,107.338,125.254,105.858C126.634,104.462,129.008,104.445,130.411,105.827C131.877,107.267,131.89,109.598,130.44,111.076Z" /></g></g></g><g id="Group 5"><g id="Group 1"><path fill="#20272c" fill-opacity="1" d="M153.265,241.193L172.045,82.325C172.559,77.984,171.217,73.699,168.268,70.26C164.929,66.365,159.986,64.085,154.629,63.9C154.632,63.888,154.636,63.875,154.639,63.864C146.962,90.244,104.145,237.359,-98.734,242.949C-96.938,250.546,-89.608,256.08,-80.943,256.08L135.155,256.08C144.476,256.08,152.262,249.68,153.265,241.193Z" /></g></g><g id="Group 4"><g id="Group 1"><path fill="#afb3b7" fill-opacity="1" d="M-93.391,243.866L-112.169,84.997C-112.713,80.398,-111.298,75.866,-108.184,72.234C-104.536,67.978,-99.076,65.537,-93.203,65.537L166.19,65.537C168.208,65.537,170.17,65.846,172.034,66.397C171.648,65.821,171.236,65.256,170.774,64.717C167.126,60.462,161.666,58.022,155.794,58.022L-103.599,58.022C-109.472,58.022,-114.932,60.463,-118.58,64.719C-121.694,68.351,-123.109,72.883,-122.565,77.482L-103.787,236.35C-102.952,243.413,-97.671,249.088,-90.676,251.16C-92.114,249.003,-93.075,246.537,-93.391,243.866Z" /></g></g><g id="Group 3"><g id="Group 1"><path fill="#371a45" fill-opacity="1" d="M-99.721,61.366C-105.549,61.366,-111.025,63.765,-114.741,67.947C-118.119,71.747,-119.659,76.539,-119.08,81.438L-100.302,240.306C-99.215,249.499,-90.892,256.43,-80.942,256.43L140.893,256.43C150.843,256.43,159.166,249.499,160.253,240.306L179.031,81.438C179.61,76.539,178.07,71.747,174.692,67.947C170.975,63.765,165.5,61.366,159.672,61.366L-99.721,61.366ZM140.893,263.951L-80.942,263.951C-94.703,263.951,-106.237,254.165,-107.771,241.189L-126.55,82.322C-127.385,75.259,-125.188,68.378,-120.363,62.95C-115.221,57.163,-107.697,53.845,-99.721,53.845L159.672,53.845C167.647,53.845,175.171,57.163,180.314,62.95C185.139,68.378,187.336,75.259,186.501,82.322L167.722,241.189C166.188,254.165,154.654,263.951,140.893,263.951Z" /></g></g><g id="Group 2"><g id="Group 1"><path fill="#e8ebed" fill-opacity="1" d="M-56.607,160.042L-71.073,160.042C-76.265,160.042,-80.473,155.833,-80.473,150.641L-80.473,102.876C-80.473,97.684,-76.265,93.476,-71.073,93.476L-56.607,93.476C-51.415,93.476,-47.207,97.684,-47.207,102.876L-47.207,150.641C-47.207,155.833,-51.415,160.042,-56.607,160.042Z" /></g></g><g id="Group 1"><g id="Group 1"><path fill="#17273a" fill-opacity="1" d="M48.061,173.58C48.105,173.562,48.15,173.543,48.194,173.525C49.56,172.955,50.831,174.442,50.057,175.704C47.835,179.326,44.466,182.295,40.19,184.003C30.527,187.863,19.309,183.731,14.481,174.513C8.911,163.879,13.585,150.935,24.398,146.206C28.487,144.417,32.845,144.07,36.9,144.943C38.237,145.231,38.43,147.058,37.176,147.604L37.134,147.622C29.671,150.886,26.463,159.837,30.358,167.163C33.71,173.467,41.445,176.264,48.061,173.58Z" /></g></g></g></g></svg>
